<svg xmlns="http://www.w3.org/2000/svg" viewBox="0 0 256 256">
  <defs>
    <style>.cls-1{fill:transparent;}.cls-2{fill:#fff;}</style>
  </defs>
  <rect class="cls-1" x="-126" y="-167.9" width="730" height="576"/>
  <path class="cls-2"
        d="M244,116a12,12,0,0,0-11.3,8H207.9a79.57,79.57,0,0,0-8.73-32.47l21.51-12.42a12.08,12.08,0,0,0,7.8,2.89,12,12,0,1,0-11.81-9.81L195.16,84.61a80.63,80.63,0,0,0-23.77-23.77l12.43-21.52a11.92,11.92,0,0,0,12.57-5.78,12,12,0,1,0-19.51,1.79l-12.41,21.5A79.57,79.57,0,0,0,132,48.1V23.3a12,12,0,1,0-8,0V48.1a79.57,79.57,0,0,0-32.47,8.73L79.12,35.33a12.42,12.42,0,1,0-6.94,4L84.61,60.84A80.63,80.63,0,0,0,60.84,84.61L39.33,72.19A12,12,0,1,0,27.52,82a12.08,12.08,0,0,0,7.8-2.89L56.83,91.53A79.57,79.57,0,0,0,48.1,124H23.3a12,12,0,1,0,0,8H48.1a79.57,79.57,0,0,0,8.73,32.47l-21.5,12.42a12,12,0,1,0,4,6.92l21.51-12.42a80.63,80.63,0,0,0,23.77,23.77L72.19,216.67A12,12,0,1,0,70,240.46a12,12,0,0,0,9.14-19.79l12.41-21.5A79.57,79.57,0,0,0,124,207.9v24.8a12,12,0,1,0,8,0V207.9a79.57,79.57,0,0,0,32.47-8.73l12.41,21.5a12,12,0,1,0,6.93-4l-12.42-21.51a80.63,80.63,0,0,0,23.77-23.77l21.51,12.42a12,12,0,1,0,4-6.92l-21.5-12.42A79.57,79.57,0,0,0,207.9,132h24.8A12,12,0,1,0,244,116ZM224.59,69a4,4,0,0,1,3.86-3,3.67,3.67,0,0,1,1,.14A3.9,3.9,0,0,1,231.92,68a4,4,0,0,1-1.46,5.46,4,4,0,0,1-5.87-4.5ZM182.54,25.54A3.94,3.94,0,0,1,185,23.68a4.21,4.21,0,0,1,1-.14,3.94,3.94,0,0,1,2,.54,4,4,0,0,1,1.46,5.46h0a4,4,0,1,1-6.92-4Zm-108.68,3a4,4,0,1,1-3.87-5,4.21,4.21,0,0,1,1.05.14,3.94,3.94,0,0,1,2.42,1.86h0A3.94,3.94,0,0,1,73.86,28.58ZM31,72a4,4,0,0,1-5.47,1.46A4,4,0,0,1,24.08,68a3.9,3.9,0,0,1,2.43-1.86,3.67,3.67,0,0,1,1-.14,4,4,0,0,1,3.86,3A4,4,0,0,1,31,72ZM12,132a4,4,0,1,1,4-4A4,4,0,0,1,12,132Zm19.41,55a4,4,0,0,1-4.9,2.82A3.9,3.9,0,0,1,24.08,188a4,4,0,0,1,3.45-6,4,4,0,0,1,3.88,5Zm42.05,43.42A4,4,0,0,1,68,231.92a4,4,0,0,1-1.46-5.46h0A3.91,3.91,0,0,1,69,224.6a3.79,3.79,0,0,1,1.05-.14,4,4,0,0,1,3.45,6Zm108.68-3a4,4,0,0,1,3.85-3,3.79,3.79,0,0,1,1,.14,4,4,0,1,1-4.5,5.86h0A3.94,3.94,0,0,1,182.14,227.42ZM225,184a4,4,0,0,1,3.48-2,4,4,0,1,1-3.88,5A4,4,0,0,1,225,184ZM128,8a4,4,0,1,1-4,4A4,4,0,0,1,128,8Zm0,240a4,4,0,1,1,4-4A4,4,0,0,1,128,248Zm0-48a72,72,0,1,1,72-72A72.08,72.08,0,0,1,128,200Zm116-68a4,4,0,1,1,4-4A4,4,0,0,1,244,132Z"/>
  <path class="cls-2"
        d="M134,94.39a12,12,0,1,0-5.59-7.28A11.91,11.91,0,0,0,134,94.39ZM136.53,82A4,4,0,0,1,139,80.14a4.19,4.19,0,0,1,1-.14,4,4,0,0,1,3.46,6,4,4,0,1,1-6.93-4Z"/>
  <path class="cls-2"
        d="M135.59,132.89a12,12,0,1,0-1.2,9.11A11.9,11.9,0,0,0,135.59,132.89ZM127.47,138a4,4,0,0,1-2.43,1.86,3.94,3.94,0,0,1-3-.4,4,4,0,1,1,5.87-4.5A4,4,0,0,1,127.47,138Z"/>
  <path class="cls-2"
        d="M170,149.61A12,12,0,0,0,153.61,154a12,12,0,0,0,20.78,12A12,12,0,0,0,170,149.61ZM167.46,162a4,4,0,0,1-7.33-1,4,4,0,1,1,7.33,1Z"/>
  <path class="cls-2"
        d="M86,137.61A12,12,0,1,0,90.39,154,11.94,11.94,0,0,0,86,137.61ZM83.46,150a4,4,0,1,1-4.5-5.86,4.19,4.19,0,0,1,1-.14,4,4,0,0,1,3.46,6Z"/>
  <circle class="cls-2" cx="172" cy="100" r="4"/>
  <circle class="cls-2" cx="148" cy="120" r="4"/>
  <circle class="cls-2" cx="104" cy="120" r="4"/>
  <circle class="cls-2" cx="172" cy="128" r="4"/>
  <circle class="cls-2" cx="140" cy="188" r="4"/>
  <circle class="cls-2" cx="112" cy="172" r="4"/>
  <circle class="cls-2" cx="96" cy="88" r="4"/>
  <circle class="cls-2" cx="72" cy="116" r="4"/>
</svg>
