<?xml version="1.0" encoding="utf-8"?>
<!-- Generator: Adobe Illustrator 23.0.3, SVG Export Plug-In . SVG Version: 6.00 Build 0)  -->
<svg version="1.1" id="Layer_1" xmlns="http://www.w3.org/2000/svg" x="0px" y="0px"
	 viewBox="0 0 1000 394.64" style="enable-background:new 0 0 1000 394.64;" xml:space="preserve">
<style type="text/css">
	.st0{fill:#00638f;}
	.st1{fill:#ffffff;}
</style>
<g id="yWorks_82_">
	<path class="st0" d="M645.91,196.91c0-28.63,20.54-48.75,49.59-48.75c29.04,0,49.78,20.12,49.78,48.75
		c0,28.63-20.75,48.96-49.78,48.96C666.45,245.87,645.91,225.54,645.91,196.91 M722.25,196.91c0-17.01-10.78-28.83-26.75-28.83
		c-15.78,0-26.77,11.82-26.77,28.83s10.99,28.84,26.77,28.84C711.48,225.76,722.25,213.92,722.25,196.91"/>
	<path class="st0" d="M822.42,152.52l-5.81,19.09c-3.52-1.25-7.26-2.08-12.03-2.08c-13.07,0-21.99,8.51-21.99,23.24v50.4h-22.61
		v-92.52h15.35l4.36,13.69c5.4-10.37,14.73-15.77,26.76-15.77C812.88,148.57,818.07,150.03,822.42,152.52"/>
	<path class="st0" d="M534.72,150.66v0.63l-48.57,122.8h-24.06v-0.41l14.54-32.77L437,151.28v-0.63h24.48L487.42,216
		c2.29,5.6-1.87-6.85,0,0c1.86-6.85,3.74-12.45,5.6-18.05l18.05-47.3H534.72z"/>
	<path class="st0" d="M622.06,150.65l-14.31,41.07c-1.25,3.53-2.49,7.26-3.53,11.42c-1.66-4.15-3.32-7.89-5.4-11.62l-18.05-36.31
		h-4.77l-18.05,36.31c-1.87,3.73-3.53,7.26-5.18,11.41c-1.04-3.94-2.08-7.47-3.32-11.21l-10.72-30.76l-12.37,31.25l19.35,51.79h6.85
		l25.93-51.66l25.73,51.66h7.05l34.64-92.73v-0.62H622.06z"/>
	<path class="st0" d="M947.74,188.2c-9.96-3.53-16.81-7.05-16.81-13.07c0-5.81,6.02-7.88,13.08-7.88c6.21,0,13.69,1.87,20.53,5.4
		l7.88-15.14c-9.95-5.81-19.7-8.3-30.28-8.3c-17.63,0-32.77,8.92-32.77,25.93c0,15.15,11.41,22.82,26.14,28.42
		c9.12,3.53,17.84,6.85,17.84,13.7c0,5.81-5.4,9.54-13.69,9.54c-8.72,0-17.42-2.7-25.32-7.68l-1.49-1.04v21.05
		c8.64,4.08,17.86,6.13,28.46,6.13c20.33,0,34.23-10.78,34.23-28C975.53,201.89,963.92,194.21,947.74,188.2"/>
	<polygon class="st0" points="902.33,230.65 872.17,195.46 902.33,159.51 902.33,150.65 883.37,150.65 852.65,187.37 852.65,118.7
		830.05,118.7 830.05,243.18 852.65,243.18 852.65,203.76 885.85,243.18 902.33,243.18 	"/>
</g>
<path class="st0" d="M25.53,160.28l0.35,75.41c0.17,38.31,20.78,73.61,54.04,92.62l65.49,37.4c33.26,19,74.14,18.8,107.22-0.5
	l65.14-38.02c33.08-19.31,53.35-54.79,53.17-93.1l-0.35-75.42c-0.18-38.31-20.78-73.61-54.04-92.59l-65.49-37.42
	c-33.27-19-74.13-18.8-107.21,0.5L78.7,67.17C45.62,86.47,25.35,121.97,25.53,160.28"/>
<path class="st1" d="M127.22,172.34c-5.16,0.01-9.91,0.26-14.54-0.96c-9.12-2.41-15.26-7.94-17.54-17.26
	c-2.6-10.63,4.26-21.93,14.8-24.81c7.84-2.14,14.66-0.12,20.85,4.76c4.26,3.36,6.99,7.92,9.63,12.54c2.45,4.29,4.78,8.67,7.77,12.61
	c3.66,4.82,8.22,8.66,13.36,11.89c5.18,3.25,10.43,6.37,15.88,9.09c7.91,3.95,16.23,6.01,25.25,5.03c8.42-0.92,15.81-4.3,22.93-8.54
	c3.14-1.87,6.34-3.64,9.46-5.57c7.3-4.53,12.97-10.57,17.3-17.91c2.73-4.62,5.15-9.42,8.31-13.77c3.81-5.25,8.71-8.96,15.11-10.46
	c9.47-2.21,20.6,2.66,24.57,12.71c4.51,11.41-1.19,23.79-12.75,28.41c-3.9,1.56-7.94,2.28-12.13,2.27c-3.67-0.01-7.34-0.02-11.01,0
	c-6.15,0.04-12.17,0.91-17.99,2.93c-4.13,1.43-7.92,3.6-11.71,5.74c-3.69,2.09-7.35,4.23-10.94,6.5
	c-6.27,3.97-11.53,8.98-15.21,15.52c-3.17,5.62-5.22,11.62-5.81,18.06c-0.51,5.51-0.41,11.04-0.38,16.56
	c0.03,5.85,0.42,11.66,2.16,17.31c1.33,4.34,3.3,8.38,5.5,12.33c2.94,5.28,6.45,10.25,8.28,16.12c1.9,6.08,1.93,12.08-0.84,17.85
	c-3.35,6.99-8.92,11.17-16.72,12.15c-6.98,0.88-13-1.38-17.78-6.29c-5.01-5.15-6.85-11.6-5.92-18.78
	c0.87-6.78,4.29-12.47,7.74-18.16c3.55-5.88,6.77-11.92,8.11-18.77c0.47-2.4,0.68-4.82,0.89-7.25c0.44-5.25,0.44-10.52,0.26-15.77
	c-0.24-6.79-0.65-13.57-3.48-19.94c-2.2-4.94-4.89-9.51-8.7-13.41c-4.11-4.21-8.87-7.5-13.94-10.46c-4.13-2.41-8.22-4.88-12.51-6.98
	c-5.88-2.87-12.09-4.49-18.64-5C133.46,172.34,130.12,172.5,127.22,172.34z"/>
<g>
</g>
<g>
</g>
<g>
</g>
<g>
</g>
<g>
</g>
<g>
</g>
</svg>
